# Generated by Wraith - Game extraction tools
# Please credit DTZxPorter for using it!

v 3.257199 -1.376619 -7.898813
v 3.257199 -1.376619 3.977670
v 5.454950 -1.387506 -7.642411
v 3.257199 -1.376619 3.977670
v 5.454950 -1.387506 3.977668
v 5.454950 -1.387506 -7.642411
v 3.257199 -1.376619 3.977670
v 3.257199 -1.376619 -7.898813
v 1.742419 -0.970041 3.977670
v 3.257199 -1.376619 -7.898813
v 1.742419 -0.970041 -8.075302
v 1.742419 -0.970041 3.977670
v 1.742419 -0.970041 3.977670
v 1.742419 -0.970041 -8.075302
v 0.180385 -1.370526 3.977670
v 1.742419 -0.970041 -8.075302
v 0.180385 -1.376619 -8.257306
v 0.180385 -1.370526 3.977670
v -6.763470 -1.387506 -9.067876
v -6.763470 -1.387506 3.977668
v 0.180385 -1.376619 -8.257306
v -6.763470 -1.387506 3.977668
v -2.188413 -1.376619 3.977670
v 0.180385 -1.376619 -8.257306
v 0.180385 -1.370526 3.977670
v 0.180385 -1.376619 -8.257306
v -2.188413 -1.376619 3.977670
v -6.763470 -1.387506 3.977668
v -6.763470 -1.387506 -9.067876
v -6.763468 1.428727 3.977668
v -6.763470 -1.387506 -9.067876
v -6.763468 1.428727 -9.067876
v -6.763468 1.428727 3.977668
v 5.454952 1.428727 -7.642411
v 3.257199 1.428727 -7.898813
v 5.454950 -1.387506 -7.642411
v 5.454950 -1.387506 -7.642411
v 3.257199 1.428727 -7.898813
v 3.257199 -1.376619 -7.898813
v 3.257199 -1.376619 -7.898813
v 3.257199 1.428727 -7.898813
v 1.742419 -0.970041 -8.075302
v 3.257199 1.428727 -7.898813
v 1.742419 1.022149 -8.075302
v 1.742419 -0.970041 -8.075302
v 1.742419 -0.970041 -8.075302
v 1.742419 1.022149 -8.075302
v 0.180385 1.428727 -8.257306
v 0.180385 -1.376619 -8.257306
v 1.742419 -0.970041 -8.075302
v 0.180385 1.428727 -8.257306
v -6.763468 1.428727 -9.067876
v 0.180385 -1.376619 -8.257306
v 0.180385 1.428727 -8.257306
v -6.763470 -1.387506 -9.067876
v 0.180385 -1.376619 -8.257306
v -6.763468 1.428727 -9.067876
v 5.454950 -1.387506 -7.642411
v 5.454950 -1.387506 3.977668
v 5.454952 1.428727 -7.642411
v 5.454950 -1.387506 3.977668
v 5.454952 1.428727 3.977668
v 5.454952 1.428727 -7.642411
v 5.454952 1.428727 3.977668
v 3.257199 1.428727 3.977670
v 5.454952 1.428727 -7.642411
v 3.257199 1.428727 3.977670
v 3.257199 1.428727 -7.898813
v 5.454952 1.428727 -7.642411
v 3.257199 1.428727 3.977670
v 1.742419 1.022149 3.977670
v 3.257199 1.428727 -7.898813
v 1.742419 1.022149 3.977670
v 1.742419 1.022149 -8.075302
v 3.257199 1.428727 -7.898813
v 1.742419 1.022149 3.977670
v 0.180385 1.422634 3.977670
v 1.742419 1.022149 -8.075302
v 0.180385 1.422634 3.977670
v 0.180385 1.428727 -8.257306
v 1.742419 1.022149 -8.075302
v -6.763468 1.428727 -9.067876
v 0.180385 1.428727 -8.257306
v -6.763468 1.428727 3.977668
v -6.763468 1.428727 3.977668
v 0.180385 1.428727 -8.257306
v -2.188413 1.428727 3.977670
v 0.180385 1.422634 3.977670
v -2.188413 1.428727 3.977670
v 0.180385 1.428727 -8.257306
v -6.763468 1.428727 3.977668
v 0.180385 1.422634 3.977670
v -6.763470 -1.387506 3.977668
v -6.763470 -1.387506 3.977668
v 0.180385 1.422634 3.977670
v 0.180385 -1.370526 3.977670
v 0.180385 1.422634 3.977670
v 1.742419 1.022149 3.977670
v 0.180385 -1.370526 3.977670
v 0.180385 -1.370526 3.977670
v 1.742419 1.022149 3.977670
v 1.742419 -0.970041 3.977670
v 1.742419 -0.970041 3.977670
v 1.742419 1.022149 3.977670
v 3.257199 -1.376619 3.977670
v 3.257199 1.428727 3.977670
v 3.257199 -1.376619 3.977670
v 1.742419 1.022149 3.977670
v 5.454952 1.428727 3.977668
v 3.257199 -1.376619 3.977670
v 3.257199 1.428727 3.977670
v 5.454950 -1.387506 3.977668
v 3.257199 -1.376619 3.977670
v 5.454952 1.428727 3.977668
v -0.443621 1.023605 5.349166
v -0.443619 1.422634 4.889449
v -0.443621 0.984870 3.977670
v -0.443619 1.422634 4.889449
v -0.443619 1.422634 3.977668
v -0.443621 0.984870 3.977670
v -0.443619 1.422634 3.977668
v -0.443619 1.422634 4.889449
v -6.763470 1.422634 3.977668
v -0.443619 1.422634 4.889449
v -6.763465 1.422634 4.889449
v -6.763470 1.422634 3.977668
v -0.443621 1.023605 5.349166
v -6.763468 1.023605 5.349166
v -0.443619 1.422634 4.889449
v -6.763468 1.023605 5.349166
v -6.763465 1.422634 4.889449
v -0.443619 1.422634 4.889449
v -6.763470 1.422634 3.977668
v -6.763465 1.422634 4.889449
v -6.763470 1.007582 3.977668
v -6.763465 1.422634 4.889449
v -6.763468 1.023605 5.349166
v -6.763470 1.007582 3.977668
v -6.763468 1.023605 5.349166
v -0.443621 1.023605 5.349166
v -6.763470 1.007582 3.977668
v -0.443621 1.023605 5.349166
v -0.443621 0.984870 3.977670
v -6.763470 1.007582 3.977668
v -6.763468 -0.993267 5.349166
v -6.763470 -1.392298 4.889449
v -6.763470 -0.957745 3.977668
v -6.763470 -1.392298 4.889449
v -6.763473 -1.392298 3.977668
v -6.763470 -0.957745 3.977668
v -6.763473 -1.392298 3.977668
v -6.763470 -1.392298 4.889449
v -0.443621 -1.392298 3.977668
v -6.763470 -1.392298 4.889449
v -0.443621 -1.392298 4.889449
v -0.443621 -1.392298 3.977668
v -6.763468 -0.993267 5.349166
v -0.443619 -0.993267 5.349166
v -6.763470 -1.392298 4.889449
v -0.443619 -0.993267 5.349166
v -0.443621 -1.392298 4.889449
v -6.763470 -1.392298 4.889449
v -0.443621 -1.392298 3.977668
v -0.443621 -1.392298 4.889449
v -0.443621 -0.986638 3.977668
v -0.443621 -1.392298 4.889449
v -0.443619 -0.993267 5.349166
v -0.443621 -0.986638 3.977668
v -6.763470 -0.957745 3.977668
v -0.443621 -0.986638 3.977668
v -6.763468 -0.993267 5.349166
v -0.443621 -0.986638 3.977668
v -0.443619 -0.993267 5.349166
v -6.763468 -0.993267 5.349166
vt -0.166992 1.414063
vt -0.166992 1.630859
vt -0.203125 1.418701
vt -0.166992 1.630859
vt -0.203125 1.630859
vt -0.203125 1.418701
vt -0.165894 1.630859
vt -0.166138 1.414063
vt -0.153076 1.630859
vt -0.166138 1.414063
vt -0.153076 1.412109
vt -0.153076 1.630859
vt -0.130371 1.630859
vt -0.130371 1.409180
vt -0.115723 1.630859
vt -0.130371 1.409180
vt -0.115723 1.407227
vt -0.115723 1.630859
vt -0.002464 1.392578
vt -0.002464 1.630859
vt -0.115723 1.407227
vt -0.002464 1.630859
vt -0.075073 1.630859
vt -0.115723 1.407227
vt -0.115723 1.630859
vt -0.115723 1.407227
vt -0.075073 1.630859
vt -0.168701 1.630371
vt -0.168701 1.424316
vt -0.197876 1.630371
vt -0.168701 1.424316
vt -0.197876 1.424316
vt -0.197876 1.630371
vt -0.079163 1.601563
vt -0.079163 1.568848
vt -0.036743 1.601563
vt -0.036743 1.601563
vt -0.079163 1.568848
vt -0.036743 1.569336
vt -0.036743 1.569336
vt -0.079163 1.568848
vt -0.036743 1.546875
vt -0.079163 1.568848
vt -0.079163 1.550293
vt -0.036743 1.546875
vt -0.036743 1.546875
vt -0.079163 1.550293
vt -0.079163 1.530762
vt -0.036743 1.522949
vt -0.036743 1.546875
vt -0.079163 1.530762
vt -0.079163 1.420166
vt -0.036743 1.522949
vt -0.079163 1.530762
vt -0.036743 1.420166
vt -0.036743 1.522949
vt -0.079163 1.420166
vt -0.032867 1.412354
vt -0.032867 1.618164
vt -0.083862 1.412354
vt -0.032867 1.618164
vt -0.083862 1.618164
vt -0.083862 1.412354
vt -0.203125 1.630859
vt -0.166992 1.630859
vt -0.203125 1.418701
vt -0.166992 1.630859
vt -0.166992 1.414063
vt -0.203125 1.418701
vt -0.165894 1.630859
vt -0.153076 1.630859
vt -0.166138 1.414063
vt -0.153076 1.630859
vt -0.153076 1.412109
vt -0.166138 1.414063
vt -0.130371 1.630859
vt -0.115723 1.630859
vt -0.130371 1.409180
vt -0.115723 1.630859
vt -0.115723 1.407227
vt -0.130371 1.409180
vt -0.002464 1.392578
vt -0.115723 1.407227
vt -0.002464 1.630859
vt -0.002464 1.630859
vt -0.115723 1.407227
vt -0.075073 1.630859
vt -0.115723 1.630859
vt -0.075073 1.630859
vt -0.115723 1.407227
vt -0.079163 1.420166
vt -0.079163 1.530762
vt -0.036743 1.420166
vt -0.036743 1.420166
vt -0.079163 1.530762
vt -0.036743 1.522949
vt -0.079163 1.530762
vt -0.079163 1.550293
vt -0.036743 1.522949
vt -0.036743 1.522949
vt -0.079163 1.550293
vt -0.036743 1.546875
vt -0.036743 1.546875
vt -0.079163 1.550293
vt -0.036743 1.569336
vt -0.079163 1.568848
vt -0.036743 1.569336
vt -0.079163 1.550293
vt -0.079163 1.601563
vt -0.036743 1.569336
vt -0.079163 1.568848
vt -0.036743 1.601563
vt -0.036743 1.569336
vt -0.079163 1.601563
vt 2.541016 0.154297
vt 2.531250 0.154297
vt 2.513672 0.161621
vt 2.531250 0.154297
vt 2.513672 0.154297
vt 2.513672 0.161621
vt 2.583984 0.659180
vt 2.583984 0.633057
vt 2.703125 0.659180
vt 2.583984 0.633057
vt 2.703125 0.633057
vt 2.703125 0.659180
vt 2.583984 0.614014
vt 2.703125 0.614014
vt 2.583984 0.633057
vt 2.703125 0.614014
vt 2.703125 0.633057
vt 2.583984 0.633057
vt 2.451172 0.154297
vt 2.470703 0.154297
vt 2.451172 0.161621
vt 2.470703 0.154297
vt 2.478516 0.154297
vt 2.451172 0.161621
vt 2.451172 0.195313
vt 2.576172 0.195313
vt 2.451172 0.161621
vt 2.576172 0.195313
vt 2.576172 0.161621
vt 2.451172 0.161621
vt 2.478516 0.204102
vt 2.470703 0.204102
vt 2.451172 0.196289
vt 2.470703 0.204102
vt 2.451172 0.204102
vt 2.451172 0.196289
vt 2.703125 0.659180
vt 2.703125 0.633057
vt 2.583984 0.659180
vt 2.703125 0.633057
vt 2.583984 0.633057
vt 2.583984 0.659180
vt 2.703125 0.614014
vt 2.583984 0.614014
vt 2.703125 0.633057
vt 2.583984 0.614014
vt 2.583984 0.633057
vt 2.703125 0.633057
vt 2.513672 0.204102
vt 2.531250 0.204102
vt 2.513672 0.196777
vt 2.531250 0.204102
vt 2.541016 0.204102
vt 2.513672 0.196777
vt 2.451172 0.161621
vt 2.576172 0.161621
vt 2.451172 0.195313
vt 2.576172 0.161621
vt 2.576172 0.195313
vt 2.451172 0.195313
vn 0.000000 -1.000000 0.000000
vn 0.000000 -1.000000 0.000000
vn -0.005871 -1.000000 0.000000
vn 0.000000 -1.000000 0.000000
vn -0.005871 -1.000000 0.000000
vn -0.005871 -1.000000 0.000000
vn -0.430528 -0.902153 0.000000
vn -0.430528 -0.902153 0.000000
vn -0.258317 -0.966732 0.000000
vn -0.430528 -0.902153 0.000000
vn -0.258317 -0.966732 0.000000
vn -0.258317 -0.966732 0.000000
vn 0.250489 -0.968689 0.000000
vn 0.250489 -0.968689 0.000000
vn 0.250489 -0.968689 0.000000
vn 0.250489 -0.968689 0.000000
vn 0.250489 -0.968689 0.000000
vn 0.250489 -0.968689 0.000000
vn 0.001957 -1.000000 0.000000
vn 0.001957 -1.000000 0.000000
vn 0.001957 -1.000000 0.000000
vn 0.001957 -1.000000 0.000000
vn 0.001957 -1.000000 0.000000
vn 0.001957 -1.000000 0.000000
vn 0.001957 -1.000000 0.000000
vn 0.001957 -1.000000 0.000000
vn 0.001957 -1.000000 0.000000
vn -1.000000 0.000000 0.000000
vn -1.000000 0.000000 0.000000
vn -1.000000 0.000000 0.000000
vn -1.000000 0.000000 0.000000
vn -1.000000 0.000000 0.000000
vn -1.000000 0.000000 0.000000
vn 0.115460 0.000000 -0.994129
vn 0.115460 0.000000 -0.994129
vn 0.115460 0.000000 -0.994129
vn 0.115460 0.000000 -0.994129
vn 0.115460 0.000000 -0.994129
vn 0.115460 0.000000 -0.994129
vn 0.115460 0.000000 -0.994129
vn 0.115460 0.000000 -0.994129
vn 0.115460 0.000000 -0.994129
vn 0.115460 0.000000 -0.994129
vn 0.115460 0.000000 -0.994129
vn 0.115460 0.000000 -0.994129
vn 0.115460 0.000000 -0.994129
vn 0.115460 0.000000 -0.994129
vn 0.115460 0.000000 -0.994129
vn 0.115460 0.000000 -0.994129
vn 0.115460 0.000000 -0.994129
vn 0.115460 0.000000 -0.994129
vn 0.115460 0.000000 -0.994129
vn 0.115460 0.000000 -0.994129
vn 0.115460 0.000000 -0.994129
vn 0.115460 0.000000 -0.994129
vn 0.115460 0.000000 -0.994129
vn 0.115460 0.000000 -0.994129
vn 1.000000 0.000000 0.000000
vn 1.000000 0.000000 0.000000
vn 1.000000 0.000000 0.000000
vn 1.000000 0.000000 0.000000
vn 1.000000 0.000000 0.000000
vn 1.000000 0.000000 0.000000
vn 0.000000 1.000000 0.000000
vn 0.000000 1.000000 0.000000
vn 0.000000 1.000000 0.000000
vn 0.000000 1.000000 0.000000
vn 0.000000 1.000000 0.000000
vn 0.000000 1.000000 0.000000
vn -0.430528 0.902153 0.000000
vn -0.258317 0.966732 0.000000
vn -0.430528 0.902153 0.000000
vn -0.258317 0.966732 0.000000
vn -0.258317 0.966732 0.000000
vn -0.430528 0.902153 0.000000
vn 0.250489 0.968689 0.000000
vn 0.250489 0.968689 0.000000
vn 0.250489 0.968689 0.000000
vn 0.250489 0.968689 0.000000
vn 0.250489 0.968689 0.000000
vn 0.250489 0.968689 0.000000
vn 0.000000 1.000000 0.000000
vn 0.000000 1.000000 0.000000
vn 0.000000 1.000000 0.000000
vn 0.000000 1.000000 0.000000
vn 0.000000 1.000000 0.000000
vn 0.000000 1.000000 0.000000
vn 0.000000 1.000000 0.000000
vn 0.000000 1.000000 0.000000
vn 0.000000 1.000000 0.000000
vn 0.000000 0.000000 1.000000
vn 0.000000 0.000000 1.000000
vn 0.000000 0.000000 1.000000
vn 0.000000 0.000000 1.000000
vn 0.000000 0.000000 1.000000
vn 0.000000 0.000000 1.000000
vn 0.000000 0.000000 1.000000
vn 0.000000 0.000000 1.000000
vn 0.000000 0.000000 1.000000
vn 0.000000 0.000000 1.000000
vn 0.000000 0.000000 1.000000
vn 0.000000 0.000000 1.000000
vn 0.000000 0.000000 1.000000
vn 0.000000 0.000000 1.000000
vn 0.000000 0.000000 1.000000
vn 0.115460 0.000000 -0.994129
vn 0.000000 0.000000 1.000000
vn 0.000000 0.000000 1.000000
vn 0.000000 0.000000 1.000000
vn 0.000000 0.000000 1.000000
vn 0.115460 0.000000 -0.994129
vn 0.000000 0.000000 1.000000
vn 0.000000 0.000000 1.000000
vn 0.000000 0.000000 1.000000
vn 1.000000 0.000000 0.000000
vn 1.000000 0.000000 0.000000
vn 1.000000 0.000000 0.000000
vn 1.000000 0.000000 0.000000
vn 1.000000 0.000000 0.000000
vn 1.000000 0.000000 0.000000
vn 0.000000 1.000000 0.000000
vn 0.000000 1.000000 0.000000
vn 0.000000 1.000000 0.000000
vn 0.000000 1.000000 0.000000
vn 0.000000 1.000000 0.000000
vn 0.000000 1.000000 0.000000
vn 0.000000 0.755382 0.655577
vn 0.000000 0.755382 0.655577
vn 0.000000 0.755382 0.655577
vn 0.000000 0.755382 0.655577
vn 0.000000 0.755382 0.655577
vn 0.000000 0.755382 0.655577
vn -1.000000 0.000000 0.000000
vn -1.000000 0.000000 0.000000
vn -1.000000 0.000000 0.000000
vn -1.000000 0.000000 0.000000
vn -1.000000 0.000000 0.000000
vn -1.000000 0.000000 0.000000
vn -0.001957 -1.000000 0.019569
vn -0.001957 -1.000000 0.019569
vn -0.001957 -1.000000 0.019569
vn -0.001957 -1.000000 0.019569
vn -0.001957 -1.000000 0.019569
vn -0.001957 -1.000000 0.019569
vn -1.000000 0.000000 0.000000
vn -1.000000 0.000000 0.000000
vn -1.000000 0.000000 0.000000
vn -1.000000 0.000000 0.000000
vn -1.000000 0.000000 0.000000
vn -1.000000 0.000000 0.000000
vn 0.000000 -1.000000 0.000000
vn 0.000000 -1.000000 0.000000
vn 0.000000 -1.000000 0.000000
vn 0.000000 -1.000000 0.000000
vn 0.000000 -1.000000 0.000000
vn 0.000000 -1.000000 0.000000
vn 0.000000 -0.755382 0.655577
vn 0.000000 -0.755382 0.655577
vn 0.000000 -0.755382 0.655577
vn 0.000000 -0.755382 0.655577
vn 0.000000 -0.755382 0.655577
vn 0.000000 -0.755382 0.655577
vn 1.000000 0.000000 0.000000
vn 1.000000 0.000000 0.000000
vn 1.000000 0.000000 0.000000
vn 1.000000 0.000000 0.000000
vn 1.000000 0.000000 0.000000
vn 1.000000 0.000000 0.000000
vn 0.001957 1.000000 0.015656
vn 0.001957 1.000000 0.015656
vn 0.001957 1.000000 0.015656
vn 0.001957 1.000000 0.015656
vn 0.001957 1.000000 0.015656
vn 0.001957 1.000000 0.015656
mtllib mtl_t6_wpn_sniper_m82.mtl
g mtl_t6_wpn_sniper_m82
usemtl mtl_t6_wpn_sniper_m82
f 3/3/3 2/2/2 1/1/1
f 6/6/6 5/5/5 4/4/4
f 9/9/9 8/8/8 7/7/7
f 12/12/12 11/11/11 10/10/10
f 15/15/15 14/14/14 13/13/13
f 18/18/18 17/17/17 16/16/16
f 21/21/21 20/20/20 19/19/19
f 24/24/24 23/23/23 22/22/22
f 27/27/27 26/26/26 25/25/25
f 30/30/30 29/29/29 28/28/28
f 33/33/33 32/32/32 31/31/31
f 36/36/36 35/35/35 34/34/34
f 39/39/39 38/38/38 37/37/37
f 42/42/42 41/41/41 40/40/40
f 45/45/45 44/44/44 43/43/43
f 48/48/48 47/47/47 46/46/46
f 51/51/51 50/50/50 49/49/49
f 54/54/54 53/53/53 52/52/52
f 57/57/57 56/56/56 55/55/55
f 60/60/60 59/59/59 58/58/58
f 63/63/63 62/62/62 61/61/61
f 66/66/66 65/65/65 64/64/64
f 69/69/69 68/68/68 67/67/67
f 72/72/72 71/71/71 70/70/70
f 75/75/75 74/74/74 73/73/73
f 78/78/78 77/77/77 76/76/76
f 81/81/81 80/80/80 79/79/79
f 84/84/84 83/83/83 82/82/82
f 87/87/87 86/86/86 85/85/85
f 90/90/90 89/89/89 88/88/88
f 93/93/93 92/92/92 91/91/91
f 96/96/96 95/95/95 94/94/94
f 99/99/99 98/98/98 97/97/97
f 102/102/102 101/101/101 100/100/100
f 105/105/105 104/104/104 103/103/103
f 108/108/108 107/107/107 106/106/106
f 111/111/111 110/110/110 109/109/109
f 114/114/114 113/113/113 112/112/112
f 117/117/117 116/116/116 115/115/115
f 120/120/120 119/119/119 118/118/118
f 123/123/123 122/122/122 121/121/121
f 126/126/126 125/125/125 124/124/124
f 129/129/129 128/128/128 127/127/127
f 132/132/132 131/131/131 130/130/130
f 135/135/135 134/134/134 133/133/133
f 138/138/138 137/137/137 136/136/136
f 141/141/141 140/140/140 139/139/139
f 144/144/144 143/143/143 142/142/142
f 147/147/147 146/146/146 145/145/145
f 150/150/150 149/149/149 148/148/148
f 153/153/153 152/152/152 151/151/151
f 156/156/156 155/155/155 154/154/154
f 159/159/159 158/158/158 157/157/157
f 162/162/162 161/161/161 160/160/160
f 165/165/165 164/164/164 163/163/163
f 168/168/168 167/167/167 166/166/166
f 171/171/171 170/170/170 169/169/169
f 174/174/174 173/173/173 172/172/172
