# Generated by Wraith - Game extraction tools
# Please credit DTZxPorter for using it!

v -6.763470 -1.387506 -9.067876
v -6.763470 -1.387506 3.977668
v 5.454950 -1.387506 -7.642411
v -6.763470 -1.387506 3.977668
v -2.188413 -1.376619 3.977670
v 5.454950 -1.387506 -7.642411
v 5.454950 -1.387506 3.977668
v 5.454950 -1.387506 -7.642411
v -2.188413 -1.376619 3.977670
v -6.763470 -1.387506 3.977668
v -6.763470 -1.387506 -9.067876
v -6.763468 1.428727 3.977668
v -6.763470 -1.387506 -9.067876
v -6.763468 1.428727 -9.067876
v -6.763468 1.428727 3.977668
v 5.454952 1.428727 -7.642411
v -6.763468 1.428727 -9.067876
v 5.454950 -1.387506 -7.642411
v -6.763468 1.428727 -9.067876
v -6.763470 -1.387506 -9.067876
v 5.454950 -1.387506 -7.642411
v 5.454950 -1.387506 -7.642411
v 5.454950 -1.387506 3.977668
v 5.454952 1.428727 -7.642411
v 5.454950 -1.387506 3.977668
v 5.454952 1.428727 3.977668
v 5.454952 1.428727 -7.642411
v -6.763468 1.428727 -9.067876
v 5.454952 1.428727 -7.642411
v -6.763468 1.428727 3.977668
v -6.763468 1.428727 3.977668
v 5.454952 1.428727 -7.642411
v -2.188413 1.428727 3.977670
v -2.188413 1.428727 3.977670
v 5.454952 1.428727 -7.642411
v 5.454952 1.428727 3.977668
vt 0.997070 0.393066
vt 0.997070 0.631104
vt 0.796387 0.418945
vt 0.997070 0.631104
vt 0.924805 0.631104
vt 0.796387 0.418945
vt 0.796387 0.631104
vt 0.796387 0.418945
vt 0.924805 0.631104
vt 0.831055 0.630615
vt 0.831055 0.424805
vt 0.801758 0.630615
vt 0.831055 0.424805
vt 0.801758 0.424805
vt 0.801758 0.630615
vt 0.920410 0.602051
vt 0.920410 0.420410
vt 0.962891 0.602051
vt 0.920410 0.420410
vt 0.962891 0.420410
vt 0.962891 0.602051
vt 0.966797 0.412598
vt 0.966797 0.618652
vt 0.916016 0.412598
vt 0.966797 0.618652
vt 0.916016 0.618652
vt 0.916016 0.412598
vt 0.997070 0.393066
vt 0.796387 0.418945
vt 0.997070 0.631104
vt 0.997070 0.631104
vt 0.796387 0.418945
vt 0.924805 0.631104
vt 0.924805 0.631104
vt 0.796387 0.418945
vt 0.796387 0.631104
vn 0.000000 -1.000000 0.000000
vn 0.000000 -1.000000 0.000000
vn 0.000000 -1.000000 0.000000
vn 0.000000 -1.000000 0.000000
vn 0.000000 -1.000000 0.000000
vn 0.000000 -1.000000 0.000000
vn 0.000000 -1.000000 0.000000
vn 0.000000 -1.000000 0.000000
vn 0.000000 -1.000000 0.000000
vn -1.000000 0.000000 0.000000
vn -1.000000 0.000000 0.000000
vn -1.000000 0.000000 0.000000
vn -1.000000 0.000000 0.000000
vn -1.000000 0.000000 0.000000
vn -1.000000 0.000000 0.000000
vn 0.115460 0.000000 -0.994129
vn 0.115460 0.000000 -0.994129
vn 0.115460 0.000000 -0.994129
vn 0.115460 0.000000 -0.994129
vn 0.115460 0.000000 -0.994129
vn 0.115460 0.000000 -0.994129
vn 1.000000 0.000000 0.000000
vn 1.000000 0.000000 0.000000
vn 1.000000 0.000000 0.000000
vn 1.000000 0.000000 0.000000
vn 1.000000 0.000000 0.000000
vn 1.000000 0.000000 0.000000
vn 0.000000 1.000000 0.000000
vn 0.000000 1.000000 0.000000
vn 0.000000 1.000000 0.000000
vn 0.000000 1.000000 0.000000
vn 0.000000 1.000000 0.000000
vn 0.000000 1.000000 0.000000
vn 0.000000 1.000000 0.000000
vn 0.000000 1.000000 0.000000
vn 0.000000 1.000000 0.000000
mtllib mtl_t6_wpn_sniper_m82.mtl
g mtl_t6_wpn_sniper_m82
usemtl mtl_t6_wpn_sniper_m82
f 3/3/3 2/2/2 1/1/1
f 6/6/6 5/5/5 4/4/4
f 9/9/9 8/8/8 7/7/7
f 12/12/12 11/11/11 10/10/10
f 15/15/15 14/14/14 13/13/13
f 18/18/18 17/17/17 16/16/16
f 21/21/21 20/20/20 19/19/19
f 24/24/24 23/23/23 22/22/22
f 27/27/27 26/26/26 25/25/25
f 30/30/30 29/29/29 28/28/28
f 33/33/33 32/32/32 31/31/31
f 36/36/36 35/35/35 34/34/34
